<?xml version="1.0" encoding="UTF-8"?>
<svg xmlns="http://www.w3.org/2000/svg" viewBox="0 0 1600 900">
<defs>
<linearGradient id="bg" x1="0" y1="0" x2="0" y2="1">
<stop offset="0%" stop-color="#080808"/>
<stop offset="100%" stop-color="#000"/>
</linearGradient>
<linearGradient id="glow" x1="0" x2="1">
<stop offset="0%" stop-color="#444"/>
<stop offset="50%" stop-color="#fff"/>
<stop offset="100%" stop-color="#444"/>
</linearGradient>
</defs>
<rect width="100%" height="100%" fill="url(#bg)"/>
<circle cx="0" cy="0" r="0.6" fill="white" opacity="0.25"/><circle cx="73" cy="137" r="1.0" fill="white" opacity="0.37"/><circle cx="146" cy="274" r="1.4" fill="white" opacity="0.49"/><circle cx="219" cy="411" r="0.6" fill="white" opacity="0.61"/><circle cx="292" cy="548" r="1.0" fill="white" opacity="0.73"/><circle cx="365" cy="685" r="1.4" fill="white" opacity="0.25"/><circle cx="438" cy="822" r="0.6" fill="white" opacity="0.37"/><circle cx="511" cy="59" r="1.0" fill="white" opacity="0.49"/><circle cx="584" cy="196" r="1.4" fill="white" opacity="0.61"/><circle cx="657" cy="333" r="0.6" fill="white" opacity="0.73"/><circle cx="730" cy="470" r="1.0" fill="white" opacity="0.25"/><circle cx="803" cy="607" r="1.4" fill="white" opacity="0.37"/><circle cx="876" cy="744" r="0.6" fill="white" opacity="0.49"/><circle cx="949" cy="881" r="1.0" fill="white" opacity="0.61"/><circle cx="1022" cy="118" r="1.4" fill="white" opacity="0.73"/><circle cx="1095" cy="255" r="0.6" fill="white" opacity="0.25"/><circle cx="1168" cy="392" r="1.0" fill="white" opacity="0.37"/><circle cx="1241" cy="529" r="1.4" fill="white" opacity="0.49"/><circle cx="1314" cy="666" r="0.6" fill="white" opacity="0.61"/><circle cx="1387" cy="803" r="1.0" fill="white" opacity="0.73"/><circle cx="1460" cy="40" r="1.4" fill="white" opacity="0.25"/><circle cx="1533" cy="177" r="0.6" fill="white" opacity="0.37"/><circle cx="6" cy="314" r="1.0" fill="white" opacity="0.49"/><circle cx="79" cy="451" r="1.4" fill="white" opacity="0.61"/><circle cx="152" cy="588" r="0.6" fill="white" opacity="0.73"/><circle cx="225" cy="725" r="1.0" fill="white" opacity="0.25"/><circle cx="298" cy="862" r="1.4" fill="white" opacity="0.37"/><circle cx="371" cy="99" r="0.6" fill="white" opacity="0.49"/><circle cx="444" cy="236" r="1.0" fill="white" opacity="0.61"/><circle cx="517" cy="373" r="1.4" fill="white" opacity="0.73"/><circle cx="590" cy="510" r="0.6" fill="white" opacity="0.25"/><circle cx="663" cy="647" r="1.0" fill="white" opacity="0.37"/><circle cx="736" cy="784" r="1.4" fill="white" opacity="0.49"/><circle cx="809" cy="21" r="0.6" fill="white" opacity="0.61"/><circle cx="882" cy="158" r="1.0" fill="white" opacity="0.73"/><circle cx="955" cy="295" r="1.4" fill="white" opacity="0.25"/><circle cx="1028" cy="432" r="0.6" fill="white" opacity="0.37"/><circle cx="1101" cy="569" r="1.0" fill="white" opacity="0.49"/><circle cx="1174" cy="706" r="1.4" fill="white" opacity="0.61"/><circle cx="1247" cy="843" r="0.6" fill="white" opacity="0.73"/><circle cx="1320" cy="80" r="1.0" fill="white" opacity="0.25"/><circle cx="1393" cy="217" r="1.4" fill="white" opacity="0.37"/><circle cx="1466" cy="354" r="0.6" fill="white" opacity="0.49"/><circle cx="1539" cy="491" r="1.0" fill="white" opacity="0.61"/><circle cx="12" cy="628" r="1.4" fill="white" opacity="0.73"/><circle cx="85" cy="765" r="0.6" fill="white" opacity="0.25"/><circle cx="158" cy="2" r="1.0" fill="white" opacity="0.37"/><circle cx="231" cy="139" r="1.4" fill="white" opacity="0.49"/><circle cx="304" cy="276" r="0.6" fill="white" opacity="0.61"/><circle cx="377" cy="413" r="1.0" fill="white" opacity="0.73"/><circle cx="450" cy="550" r="1.4" fill="white" opacity="0.25"/><circle cx="523" cy="687" r="0.6" fill="white" opacity="0.37"/><circle cx="596" cy="824" r="1.0" fill="white" opacity="0.49"/><circle cx="669" cy="61" r="1.4" fill="white" opacity="0.61"/><circle cx="742" cy="198" r="0.6" fill="white" opacity="0.73"/><circle cx="815" cy="335" r="1.0" fill="white" opacity="0.25"/><circle cx="888" cy="472" r="1.4" fill="white" opacity="0.37"/><circle cx="961" cy="609" r="0.6" fill="white" opacity="0.49"/><circle cx="1034" cy="746" r="1.0" fill="white" opacity="0.61"/><circle cx="1107" cy="883" r="1.4" fill="white" opacity="0.73"/><circle cx="1180" cy="120" r="0.6" fill="white" opacity="0.25"/><circle cx="1253" cy="257" r="1.0" fill="white" opacity="0.37"/><circle cx="1326" cy="394" r="1.4" fill="white" opacity="0.49"/><circle cx="1399" cy="531" r="0.6" fill="white" opacity="0.61"/><circle cx="1472" cy="668" r="1.0" fill="white" opacity="0.73"/><circle cx="1545" cy="805" r="1.4" fill="white" opacity="0.25"/><circle cx="18" cy="42" r="0.6" fill="white" opacity="0.37"/><circle cx="91" cy="179" r="1.0" fill="white" opacity="0.49"/><circle cx="164" cy="316" r="1.4" fill="white" opacity="0.61"/><circle cx="237" cy="453" r="0.6" fill="white" opacity="0.73"/><circle cx="310" cy="590" r="1.0" fill="white" opacity="0.25"/><circle cx="383" cy="727" r="1.4" fill="white" opacity="0.37"/><circle cx="456" cy="864" r="0.6" fill="white" opacity="0.49"/><circle cx="529" cy="101" r="1.0" fill="white" opacity="0.61"/><circle cx="602" cy="238" r="1.4" fill="white" opacity="0.73"/><circle cx="675" cy="375" r="0.6" fill="white" opacity="0.25"/><circle cx="748" cy="512" r="1.0" fill="white" opacity="0.37"/><circle cx="821" cy="649" r="1.4" fill="white" opacity="0.49"/><circle cx="894" cy="786" r="0.6" fill="white" opacity="0.61"/><circle cx="967" cy="23" r="1.0" fill="white" opacity="0.73"/><circle cx="1040" cy="160" r="1.4" fill="white" opacity="0.25"/><circle cx="1113" cy="297" r="0.6" fill="white" opacity="0.37"/><circle cx="1186" cy="434" r="1.0" fill="white" opacity="0.49"/><circle cx="1259" cy="571" r="1.4" fill="white" opacity="0.61"/><circle cx="1332" cy="708" r="0.6" fill="white" opacity="0.73"/><circle cx="1405" cy="845" r="1.0" fill="white" opacity="0.25"/><circle cx="1478" cy="82" r="1.4" fill="white" opacity="0.37"/><circle cx="1551" cy="219" r="0.6" fill="white" opacity="0.49"/><circle cx="24" cy="356" r="1.0" fill="white" opacity="0.61"/><circle cx="97" cy="493" r="1.4" fill="white" opacity="0.73"/><circle cx="170" cy="630" r="0.6" fill="white" opacity="0.25"/><circle cx="243" cy="767" r="1.0" fill="white" opacity="0.37"/><circle cx="316" cy="4" r="1.4" fill="white" opacity="0.49"/><circle cx="389" cy="141" r="0.6" fill="white" opacity="0.61"/><circle cx="462" cy="278" r="1.0" fill="white" opacity="0.73"/><circle cx="535" cy="415" r="1.4" fill="white" opacity="0.25"/><circle cx="608" cy="552" r="0.6" fill="white" opacity="0.37"/><circle cx="681" cy="689" r="1.0" fill="white" opacity="0.49"/><circle cx="754" cy="826" r="1.4" fill="white" opacity="0.61"/><circle cx="827" cy="63" r="0.6" fill="white" opacity="0.73"/><circle cx="900" cy="200" r="1.0" fill="white" opacity="0.25"/><circle cx="973" cy="337" r="1.4" fill="white" opacity="0.37"/><circle cx="1046" cy="474" r="0.6" fill="white" opacity="0.49"/><circle cx="1119" cy="611" r="1.0" fill="white" opacity="0.61"/><circle cx="1192" cy="748" r="1.4" fill="white" opacity="0.73"/><circle cx="1265" cy="885" r="0.6" fill="white" opacity="0.25"/><circle cx="1338" cy="122" r="1.0" fill="white" opacity="0.37"/><circle cx="1411" cy="259" r="1.4" fill="white" opacity="0.49"/><circle cx="1484" cy="396" r="0.6" fill="white" opacity="0.61"/><circle cx="1557" cy="533" r="1.0" fill="white" opacity="0.73"/><circle cx="30" cy="670" r="1.4" fill="white" opacity="0.25"/><circle cx="103" cy="807" r="0.6" fill="white" opacity="0.37"/><circle cx="176" cy="44" r="1.0" fill="white" opacity="0.49"/><circle cx="249" cy="181" r="1.4" fill="white" opacity="0.61"/><circle cx="322" cy="318" r="0.6" fill="white" opacity="0.73"/><circle cx="395" cy="455" r="1.0" fill="white" opacity="0.25"/><circle cx="468" cy="592" r="1.4" fill="white" opacity="0.37"/><circle cx="541" cy="729" r="0.6" fill="white" opacity="0.49"/><circle cx="614" cy="866" r="1.0" fill="white" opacity="0.61"/><circle cx="687" cy="103" r="1.4" fill="white" opacity="0.73"/><circle cx="760" cy="240" r="0.6" fill="white" opacity="0.25"/><circle cx="833" cy="377" r="1.0" fill="white" opacity="0.37"/><circle cx="906" cy="514" r="1.4" fill="white" opacity="0.49"/><circle cx="979" cy="651" r="0.6" fill="white" opacity="0.61"/><circle cx="1052" cy="788" r="1.0" fill="white" opacity="0.73"/><circle cx="1125" cy="25" r="1.4" fill="white" opacity="0.25"/><circle cx="1198" cy="162" r="0.6" fill="white" opacity="0.37"/><circle cx="1271" cy="299" r="1.0" fill="white" opacity="0.49"/><circle cx="1344" cy="436" r="1.4" fill="white" opacity="0.61"/><circle cx="1417" cy="573" r="0.6" fill="white" opacity="0.73"/><circle cx="1490" cy="710" r="1.0" fill="white" opacity="0.25"/><circle cx="1563" cy="847" r="1.4" fill="white" opacity="0.37"/><circle cx="36" cy="84" r="0.6" fill="white" opacity="0.49"/><circle cx="109" cy="221" r="1.0" fill="white" opacity="0.61"/><circle cx="182" cy="358" r="1.4" fill="white" opacity="0.73"/><circle cx="255" cy="495" r="0.6" fill="white" opacity="0.25"/><circle cx="328" cy="632" r="1.0" fill="white" opacity="0.37"/><circle cx="401" cy="769" r="1.4" fill="white" opacity="0.49"/><circle cx="474" cy="6" r="0.6" fill="white" opacity="0.61"/><circle cx="547" cy="143" r="1.0" fill="white" opacity="0.73"/><circle cx="620" cy="280" r="1.4" fill="white" opacity="0.25"/><circle cx="693" cy="417" r="0.6" fill="white" opacity="0.37"/><circle cx="766" cy="554" r="1.0" fill="white" opacity="0.49"/><circle cx="839" cy="691" r="1.4" fill="white" opacity="0.61"/><circle cx="912" cy="828" r="0.6" fill="white" opacity="0.73"/><circle cx="985" cy="65" r="1.0" fill="white" opacity="0.25"/><circle cx="1058" cy="202" r="1.4" fill="white" opacity="0.37"/><circle cx="1131" cy="339" r="0.6" fill="white" opacity="0.49"/><circle cx="1204" cy="476" r="1.0" fill="white" opacity="0.61"/><circle cx="1277" cy="613" r="1.4" fill="white" opacity="0.73"/><circle cx="1350" cy="750" r="0.6" fill="white" opacity="0.25"/><circle cx="1423" cy="887" r="1.0" fill="white" opacity="0.37"/><circle cx="1496" cy="124" r="1.4" fill="white" opacity="0.49"/><circle cx="1569" cy="261" r="0.6" fill="white" opacity="0.61"/><circle cx="42" cy="398" r="1.0" fill="white" opacity="0.73"/><circle cx="115" cy="535" r="1.4" fill="white" opacity="0.25"/><circle cx="188" cy="672" r="0.6" fill="white" opacity="0.37"/><circle cx="261" cy="809" r="1.0" fill="white" opacity="0.49"/><circle cx="334" cy="46" r="1.4" fill="white" opacity="0.61"/><circle cx="407" cy="183" r="0.6" fill="white" opacity="0.73"/><circle cx="480" cy="320" r="1.0" fill="white" opacity="0.25"/><circle cx="553" cy="457" r="1.4" fill="white" opacity="0.37"/><circle cx="626" cy="594" r="0.6" fill="white" opacity="0.49"/><circle cx="699" cy="731" r="1.0" fill="white" opacity="0.61"/><circle cx="772" cy="868" r="1.4" fill="white" opacity="0.73"/><circle cx="845" cy="105" r="0.6" fill="white" opacity="0.25"/><circle cx="918" cy="242" r="1.0" fill="white" opacity="0.37"/><circle cx="991" cy="379" r="1.4" fill="white" opacity="0.49"/><circle cx="1064" cy="516" r="0.6" fill="white" opacity="0.61"/><circle cx="1137" cy="653" r="1.0" fill="white" opacity="0.73"/><circle cx="1210" cy="790" r="1.4" fill="white" opacity="0.25"/><circle cx="1283" cy="27" r="0.6" fill="white" opacity="0.37"/><circle cx="1356" cy="164" r="1.0" fill="white" opacity="0.49"/><circle cx="1429" cy="301" r="1.4" fill="white" opacity="0.61"/><circle cx="1502" cy="438" r="0.6" fill="white" opacity="0.73"/><circle cx="1575" cy="575" r="1.0" fill="white" opacity="0.25"/><circle cx="48" cy="712" r="1.4" fill="white" opacity="0.37"/><circle cx="121" cy="849" r="0.6" fill="white" opacity="0.49"/><circle cx="194" cy="86" r="1.0" fill="white" opacity="0.61"/><circle cx="267" cy="223" r="1.4" fill="white" opacity="0.73"/><circle cx="340" cy="360" r="0.6" fill="white" opacity="0.25"/><circle cx="413" cy="497" r="1.0" fill="white" opacity="0.37"/><circle cx="486" cy="634" r="1.4" fill="white" opacity="0.49"/><circle cx="559" cy="771" r="0.6" fill="white" opacity="0.61"/><circle cx="632" cy="8" r="1.0" fill="white" opacity="0.73"/><circle cx="705" cy="145" r="1.4" fill="white" opacity="0.25"/><circle cx="778" cy="282" r="0.6" fill="white" opacity="0.37"/><circle cx="851" cy="419" r="1.0" fill="white" opacity="0.49"/><circle cx="924" cy="556" r="1.4" fill="white" opacity="0.61"/><circle cx="997" cy="693" r="0.6" fill="white" opacity="0.73"/><circle cx="1070" cy="830" r="1.0" fill="white" opacity="0.25"/><circle cx="1143" cy="67" r="1.4" fill="white" opacity="0.37"/><circle cx="1216" cy="204" r="0.6" fill="white" opacity="0.49"/><circle cx="1289" cy="341" r="1.0" fill="white" opacity="0.61"/><circle cx="1362" cy="478" r="1.4" fill="white" opacity="0.73"/><circle cx="1435" cy="615" r="0.6" fill="white" opacity="0.25"/><circle cx="1508" cy="752" r="1.0" fill="white" opacity="0.37"/><circle cx="1581" cy="889" r="1.4" fill="white" opacity="0.49"/><circle cx="54" cy="126" r="0.6" fill="white" opacity="0.61"/><circle cx="127" cy="263" r="1.0" fill="white" opacity="0.73"/><circle cx="200" cy="400" r="1.4" fill="white" opacity="0.25"/><circle cx="273" cy="537" r="0.6" fill="white" opacity="0.37"/><circle cx="346" cy="674" r="1.0" fill="white" opacity="0.49"/><circle cx="419" cy="811" r="1.4" fill="white" opacity="0.61"/><circle cx="492" cy="48" r="0.6" fill="white" opacity="0.73"/><circle cx="565" cy="185" r="1.0" fill="white" opacity="0.25"/><circle cx="638" cy="322" r="1.4" fill="white" opacity="0.37"/><circle cx="711" cy="459" r="0.6" fill="white" opacity="0.49"/><circle cx="784" cy="596" r="1.0" fill="white" opacity="0.61"/><circle cx="857" cy="733" r="1.4" fill="white" opacity="0.73"/><circle cx="930" cy="870" r="0.6" fill="white" opacity="0.25"/><circle cx="1003" cy="107" r="1.0" fill="white" opacity="0.37"/><circle cx="1076" cy="244" r="1.4" fill="white" opacity="0.49"/><circle cx="1149" cy="381" r="0.6" fill="white" opacity="0.61"/><circle cx="1222" cy="518" r="1.0" fill="white" opacity="0.73"/><circle cx="1295" cy="655" r="1.4" fill="white" opacity="0.25"/><circle cx="1368" cy="792" r="0.6" fill="white" opacity="0.37"/><circle cx="1441" cy="29" r="1.0" fill="white" opacity="0.49"/><circle cx="1514" cy="166" r="1.4" fill="white" opacity="0.61"/><circle cx="1587" cy="303" r="0.6" fill="white" opacity="0.73"/><g stroke="#7d7d7d" fill="none" opacity="0.55"><circle cx="120" cy="260" r="240"/><ellipse cx="120" cy="260" rx="50" ry="240"/><ellipse cx="120" cy="260" rx="100" ry="240"/><ellipse cx="120" cy="260" rx="150" ry="240"/><ellipse cx="120" cy="260" rx="200" ry="240"/><ellipse cx="120" cy="260" rx="240" ry="60"/><ellipse cx="120" cy="260" rx="240" ry="120"/><ellipse cx="120" cy="260" rx="240" ry="180"/></g><g stroke="#cfcfcf" fill="none" opacity="0.65">
<path d="M1290 150 C1430 110 1510 220 1480 350 C1450 470 1375 545 1275 560
C1330 495 1335 430 1300 355 C1270 295 1260 220 1290 150Z" stroke-width="2"/>
<line x1="1280" y1="170" x2="1450" y2="220" stroke="#888" stroke-width="0.8"/><line x1="1288" y1="182" x2="1445" y2="230" stroke="#888" stroke-width="0.8"/><line x1="1296" y1="194" x2="1440" y2="240" stroke="#888" stroke-width="0.8"/><line x1="1304" y1="206" x2="1435" y2="250" stroke="#888" stroke-width="0.8"/><line x1="1312" y1="218" x2="1430" y2="260" stroke="#888" stroke-width="0.8"/><line x1="1320" y1="230" x2="1425" y2="270" stroke="#888" stroke-width="0.8"/><line x1="1328" y1="242" x2="1420" y2="280" stroke="#888" stroke-width="0.8"/><line x1="1336" y1="254" x2="1415" y2="290" stroke="#888" stroke-width="0.8"/><line x1="1344" y1="266" x2="1410" y2="300" stroke="#888" stroke-width="0.8"/><line x1="1352" y1="278" x2="1405" y2="310" stroke="#888" stroke-width="0.8"/><line x1="1360" y1="290" x2="1400" y2="320" stroke="#888" stroke-width="0.8"/><line x1="1368" y1="302" x2="1395" y2="330" stroke="#888" stroke-width="0.8"/><line x1="1376" y1="314" x2="1390" y2="340" stroke="#888" stroke-width="0.8"/><line x1="1384" y1="326" x2="1385" y2="350" stroke="#888" stroke-width="0.8"/><line x1="1392" y1="338" x2="1380" y2="360" stroke="#888" stroke-width="0.8"/><line x1="1400" y1="350" x2="1375" y2="370" stroke="#888" stroke-width="0.8"/><line x1="1408" y1="362" x2="1370" y2="380" stroke="#888" stroke-width="0.8"/><line x1="1416" y1="374" x2="1365" y2="390" stroke="#888" stroke-width="0.8"/><line x1="1424" y1="386" x2="1360" y2="400" stroke="#888" stroke-width="0.8"/><line x1="1432" y1="398" x2="1355" y2="410" stroke="#888" stroke-width="0.8"/><line x1="1440" y1="410" x2="1350" y2="420" stroke="#888" stroke-width="0.8"/><line x1="1448" y1="422" x2="1345" y2="430" stroke="#888" stroke-width="0.8"/><line x1="1456" y1="434" x2="1340" y2="440" stroke="#888" stroke-width="0.8"/><line x1="1464" y1="446" x2="1335" y2="450" stroke="#888" stroke-width="0.8"/><line x1="1472" y1="458" x2="1330" y2="460" stroke="#888" stroke-width="0.8"/></g><g transform="translate(800 170)">
<path d="M0-80 L50-30 L50 45 L0 95 L-50 45 L-50-30 Z" fill="none" stroke="#fff" stroke-width="10"/>
<rect x="-18" y="-18" width="36" height="36" fill="#fff" transform="rotate(45)"/>
</g><text x="800" y="360" text-anchor="middle"
font-family="Arial,Helvetica,sans-serif" font-size="84"
font-weight="700" fill="white">AMAN BARNWAL</text>
<line x1="360" y1="400" x2="610" y2="400" stroke="url(#glow)" stroke-width="2"/>
<line x1="990" y1="400" x2="1240" y2="400" stroke="url(#glow)" stroke-width="2"/>
<text x="800" y="420" text-anchor="middle"
font-family="Arial" font-size="24" letter-spacing="8" fill="#ddd">FOUNDER @ LIONEX</text>
<text x="800" y="505" text-anchor="middle"
font-family="Arial" font-size="28" letter-spacing="4" fill="#eee">BUILDING AI THAT UNDERSTANDS PEOPLE.</text>
<rect x="535" y="560" width="530" height="64" rx="10" fill="none" stroke="#999"/>
<text x="800" y="601" text-anchor="middle"
font-family="Arial" font-size="24" letter-spacing="3" fill="white">BUILDING THE FUTURE. TOGETHER.</text>
<g stroke="#666" fill="none" opacity="0.9"><path d="M0 720 Q100 720.0 200 720 Q300 736.1 400 720 Q500 734.3 600 720 Q700 716.6 800 720 Q900 702.6 1000 720 Q1100 708.0 1200 720 Q1300 726.7 1400 720 Q1500 737.9 1600 720 Q1700 729.2 1800 720 " stroke-width="1"/><path d="M0 730 Q100 736.2 200 730 Q300 747.9 400 730 Q500 739.7 600 730 Q700 720.7 800 730 Q900 712.1 1000 730 Q1100 723.4 1200 730 Q1300 742.1 1400 730 Q1500 747.3 1600 730 Q1700 733.3 1800 730 " stroke-width="1"/><path d="M0 740 Q100 751.6 200 740 Q300 757.5 400 740 Q500 743.9 600 740 Q700 726.0 800 740 Q900 723.7 1000 740 Q1100 739.5 1200 740 Q1300 755.9 1400 740 Q1500 754.6 1600 740 Q1700 737.1 1800 740 " stroke-width="1"/><path d="M0 750 Q100 765.6 200 750 Q300 765.0 400 750 Q500 747.7 600 750 Q700 733.0 800 750 Q900 737.2 1000 750 Q1100 755.7 1200 750 Q1300 767.8 1400 750 Q1500 760.1 1600 750 Q1700 741.1 1800 750 " stroke-width="1"/><path d="M0 760 Q100 777.7 200 760 Q300 770.6 400 760 Q500 751.7 600 760 Q700 742.0 800 760 Q900 752.4 1000 760 Q1100 771.2 1200 760 Q1300 777.6 1400 760 Q1500 764.4 1600 760 Q1700 746.3 1800 760 " stroke-width="1"/><path d="M0 770 Q100 787.7 200 770 Q300 775.0 400 770 Q500 756.7 600 770 Q700 753.2 800 770 Q900 768.4 1000 770 Q1100 785.4 1200 770 Q1300 785.2 1400 770 Q1500 768.1 1600 770 Q1700 753.1 1800 770 " stroke-width="1"/><path d="M0 780 Q100 795.5 200 780 Q300 778.7 400 780 Q500 763.4 600 780 Q700 766.5 800 780 Q900 784.6 1000 780 Q1100 797.6 1200 780 Q1300 791.0 1400 780 Q1500 772.1 1600 780 Q1700 762.0 1800 780 " stroke-width="1"/><path d="M0 790 Q100 801.5 200 790 Q300 782.7 400 790 Q500 772.0 600 790 Q700 781.4 800 790 Q900 800.3 1000 790 Q1100 807.8 1200 790 Q1300 795.5 1400 790 Q1500 777.1 1600 790 Q1700 773.1 1800 790 " stroke-width="1"/><path d="M0 800 Q100 806.0 200 800 Q300 787.5 400 800 Q500 782.9 600 800 Q700 797.3 800 800 Q900 814.8 1000 800 Q1100 815.8 1200 800 Q1300 799.2 1400 800 Q1500 783.5 1600 800 Q1700 786.2 1800 800 " stroke-width="1"/><path d="M0 810 Q100 809.8 200 810 Q300 793.8 400 810 Q500 795.8 600 810 Q700 813.6 800 810 Q900 827.4 1000 810 Q1100 821.9 1200 810 Q1300 803.1 1400 810 Q1500 792.0 1600 810 Q1700 800.9 1800 810 " stroke-width="1"/><path d="M0 820 Q100 813.7 200 820 Q300 802.1 400 820 Q500 810.4 600 820 Q700 829.4 800 820 Q900 837.9 1000 820 Q1100 826.5 1200 820 Q1300 807.8 1400 820 Q1500 802.7 1600 820 Q1700 816.8 1800 820 " stroke-width="1"/><path d="M0 830 Q100 818.3 200 830 Q300 812.6 400 830 Q500 826.2 600 830 Q700 844.1 800 830 Q900 846.3 1000 830 Q1100 830.3 1200 830 Q1300 814.0 1400 830 Q1500 815.5 1600 830 Q1700 833.1 1800 830 " stroke-width="1"/><path d="M0 840 Q100 824.3 200 840 Q300 825.1 400 840 Q500 842.5 600 840 Q700 857.1 800 840 Q900 852.7 1000 840 Q1100 834.2 1200 840 Q1300 822.1 1400 840 Q1500 830.0 1600 840 Q1700 849.0 1800 840 " stroke-width="1"/><path d="M0 850 Q100 832.2 200 850 Q300 839.5 400 850 Q500 858.5 600 850 Q700 868.0 800 850 Q900 857.5 1000 850 Q1100 838.7 1200 850 Q1300 832.4 1400 850 Q1500 845.7 1600 850 Q1700 863.8 1800 850 " stroke-width="1"/><path d="M0 860 Q100 842.3 200 860 Q300 855.2 400 860 Q500 873.4 600 860 Q700 876.7 800 860 Q900 861.4 1000 860 Q1100 844.6 1200 860 Q1300 844.9 1400 860 Q1500 862.0 1600 860 Q1700 876.9 1800 860 " stroke-width="1"/><path d="M0 870 Q100 854.5 200 870 Q300 871.4 400 870 Q500 886.7 600 870 Q700 883.4 800 870 Q900 865.2 1000 870 Q1100 852.3 1200 870 Q1300 859.1 1400 870 Q1500 878.0 1600 870 Q1700 888.0 1800 870 " stroke-width="1"/><path d="M0 880 Q100 868.6 200 880 Q300 887.5 400 880 Q500 898.0 600 880 Q700 888.5 800 880 Q900 869.5 1000 880 Q1100 862.2 1200 880 Q1300 874.7 1400 880 Q1500 893.1 1600 880 Q1700 896.9 1800 880 " stroke-width="1"/><path d="M0 890 Q100 884.1 200 890 Q300 902.6 400 890 Q500 907.1 600 890 Q700 892.5 800 890 Q900 875.2 1000 890 Q1100 874.3 1200 890 Q1300 890.9 1400 890 Q1500 906.5 1600 890 Q1700 903.7 1800 890 " stroke-width="1"/></g></svg>